<?xml version="1.0" encoding="UTF-8"?>
<svg id="Capa_2" data-name="Capa 2" xmlns="http://www.w3.org/2000/svg" viewBox="0 0 96.21 99.79">
  <defs>
    <style>
      .cls-1 {
        fill: #e86126;
        stroke: #f6f8f9;
        stroke-miterlimit: 10;
      }
    </style>
  </defs>
  <g id="Capa_2-2" data-name="Capa 2">
    <path class="cls-1" d="M94,49.7v-2.8c-.74,1.24-3.09,5.17-3.46,5.67-.44.59-2.66,3.39-5.61,3.25-2.95-.15-2.8-3.25-3.39-4.28-.59-1.03-.87-3.94-.74-5.31.05-.53,2.8-2.66,2.8-3.1s-.87.15-2.36.44c-1.49.29-1.92,1.03-3.39,1.18-1.47.15-.89-3.1-1.18-4.57-.29-1.48.74-2.66,2.06-3.24,1.33-.59,2.8-1.03,2.21-1.62-.59-.59-2.79-2.95-2.79-2.95l-1.48-4.28s-5.6-4.42-6.05-4.28c-.27.09.12-.98.53-1.86l-.21.14h-1s-1.33.3-1.62.74c-.3.44-2.36,1.92-2.36,1.92-.44-.15-.89.44-1.48.89-.59.44-2.36.59-2.36.59,0,0-1.62-.3-1.92-.74-.29-.44-2.07.29-2.07.29l-2.07,1.62s-2.06,3.24-2.65,3.83c-.59.59-1.18.59-1.33,1.18-.15.59-1.62,2.8-2.65,3.39-1.03.59-1.92-1.48-1.92-1.48,0,0-2.51,4.13-3.05,4.57-.55.44-2.7,3.84-2.99,4.28-.29.44-2.21,2.36-2.21,2.36l-2.22.74s-2.65-.74-3.39-.18c-.74.56-4.28-.41-4.72-.11-.44.3-2.8-.15-2.8,0s-1.62-1.92-1.62-1.92c0,0-.89-2.66-1.03-3.39-.15-.74-1.92-3.54-1.92-3.54v-3.83c0-.44,1.77-3.25,1.77-3.25l1.47-1.77s.15-2.36-.59-2.8c-.74-.44,1.18-2.21,1.18-2.21l1.33-2.36,2.36-3.68,1.62-2.21s-.02-.05-.05-.13l-.22-.04-1.29-3.85-3.43-3.53-.09-.44c-.19-.57-.32-1.42-.41-2.11l-.83-4.23-.03-.05c-.4.23-.88.51-1.28.92-.66.66-1.72,1.26-1.72,1.26l-1.79,1.92s-1.26,1.66-2.58,2.18c-1.32.53-1.39.4-1.86.6-.46.2-2.45.4-2.65.46-.2.06-1.59.73-1.59.73,0,0-1.19,1.12-1.39,1.59-.15.36-.19,1.07-.1,1.47,0-.1.13-.11.7.25,1.26.79.33-.73,2.12,1.12,1.79,1.86,2.38,1.92,2.45,2.59.07.66.4,6.03.4,6.23v1.79c0,.46.73.86.2,2.58-.53,1.72-1.65,2.78-1.65,2.78-1.12,1.12-1.46,1.66-2.65,1.33-1.19-.33-2.19-.93-2.25-1.46-.07-.53-.8,0,0-1.12.79-1.13,1.52-1.59,2.19-2.19.66-.59,1.52-.06,1.06-1.32-.47-1.26.4-1.73-.53-1.53-.93.2-.59.73-1.59.66-.99-.07-1.06,1.26-.99-.07.07-1.33.2-2.91-.2-3.51-.4-.6-.46-1.06-.86-.99-.4.07-.66.4-1.26.33-.6-.07-1.06-.13-1.32-.53-.26-.4-.79-1.39-.79-1.39,0,0-.04-.1-.28-.42L.5,36.91l1.08,17.84s9.73,31.53,9.73,30.99,21.8,13.55,21.8,13.55c0,0,5.76-.22,6.48-.01.72.21,1.62-2.01,4.63-1.83,3.01.18,2.22-.54,2.76-1.26.54-.72-.9-3.42-.72-4.68.18-1.26,1.62,1.26,3.33.72,1.7-.54,1,.54,2.26.9,1.26.36.9,1.62.9,2.16s.54,1.26.54,1.26c0,0,1.26,2.52,1.98,2.7.72.18.9-.54,3.78-1.8,2.88-1.26,1.44-1.26,2.04-3.25.24-.8,2.1-1.44,2.64-1.8.54-.36,1.98-.72,2.88-.9.9-.18,1.26.36,1.95,1.08.69.72.93.54,1.47.72.54.18,1.35-1.62,1.35-1.62l2.83-1.44,4.02-9.37-1.98-2.57s.93-1.37,1.6-2.35c.67-.99,2.27-1.92,2.81-3,.54-1.08-.36-1.26-.36-1.26,0,0,.54-3.06,1.26-4.38.26-.47,3.3-1.03,3.3-1.03,0,0,.3-1.98.81-2.88.51-.9,3.27-1.98,3.99-2.16.72-.18,1.98-2.16,3.17-2.88,1.18-.72,2.24-2.52,2.78-2.41.54.11-1.62-3.01-1.62-3.01v-3.23Z"/>
  </g>
</svg>