<?xml version="1.0" encoding="UTF-8"?>
<svg id="Capa_2" data-name="Capa 2" xmlns="http://www.w3.org/2000/svg" viewBox="0 0 57.31 107.7">
  <defs>
    <style>
      .cls-1 {
        fill: #e86126;
        stroke: #f6f8f9;
        stroke-miterlimit: 10;
        stroke-width: .5px;
      }
    </style>
  </defs>
  <g id="Capa_2-2" data-name="Capa 2">
    <path class="cls-1" d="M24.9,15.71c-.54.58-.59,2.36,0,2.51.59.15,2.64,1.33,2.5,1.91-.14.59-.44,1.62-.88,2.21-.44.59-1.03,1.18-1.03,1.92s1.91,2.21,1.91,2.8c0,.59,1.33,2.06,1.19,3.39-.15,1.32-.44,4.28-.29,4.72.15.44-1.92,1.33.89,2.06,2.8.74,3.54,3.83,4.42,4.27.89.45,1.77,1.48,3.54,1.48s3.1,1.18,3.83,2.06c.73.88,5.16,5.02,5.9,5.31.74.29,3.83,1.18,4.72,1.18h1.99c1.19,1.75,2.25,3.33,2.43,3.69.44.88,0,1.47-.29,2.36-.3.89-.89,3.39-.89,3.98s1.48,1.18,1.48,1.18c0,0,.89,8.4.74,9-.15.59-1.62,3.1-1.76,3.54-.14.44-3.1,2.8-3.1,2.8,0,0,1.03,4.13,1.91,5.61.88,1.47,1.03,4.27,1.18,5.31.15,1.03-2.36,4.57-2.94,5.9-.59,1.33-1.04,3.24-1.04,3.24,0,0-3.24,5.46-3.68,6.05-.44.59-2.66,3.39-5.61,3.25-2.95-.15-2.8-3.25-3.39-4.28-.59-1.03-.87-3.94-.74-5.31.05-.53,2.8-2.66,2.8-3.1s-.87.15-2.36.44c-1.49.29-1.92,1.03-3.39,1.18-1.47.15-.89-3.1-1.18-4.57-.29-1.48.74-2.66,2.06-3.24,1.33-.59,2.8-1.03,2.21-1.62-.59-.59-2.79-2.95-2.79-2.95l-1.48-4.28s-5.6-4.42-6.05-4.28c-.44.15.88-2.8,1.18-2.95.3-.15,4.43-2.36,4.43-2.36,0,0,1.77-4.86,1.91-5.3.15-.44-1.18-2.95-1.76-4-.59-1.05.3-3.38.89-3.97.59-.59-.89-2.95-1.33-3.39-.44-.44-3.39-3.09-3.83-3.09s-2.95-3.25-2.95-3.25l-1.67-3.25s-1.28-4.13-1.72-4.86c-.44-.74-2.21-2.21-2.51-2.95-.29-.74-1.62-2.8-2.06-3.83-.44-1.03-2.95-1.03-3.54-1.33-.58-.29-2.63,0-2.63,0,0,0-.17-3.24-.03-3.68.15-.44-.29-.89-.88-1.18-.59-.29-2.36-2.8-2.36-2.8v-3.83l-2.21-1.33-1.1.22c.09-.1.18-.21.24-.34.33-.73.27-.79.53-.99.27-.2-.33-.79-.33-.79,0,0-2.78,2.12-3.31,2.51-.53.4-.73-.13-1.92-.93-1.19-.8.2-.86,1.32-1.99,1.13-1.13.6-1.06,2.38-1.33,1.79-.26,2.19-1.39,2.92-1.99.73-.6-.2-.99-1.19-2.25-.99-1.26.73-.73.53-3.18-.2-2.45-.6-.93-.79-2.05-.2-1.13,1.52,0,2.65-.86,1.13-.86,1.19-1.72,3.18-1.92,1.56-.15,1.78-1.17,1.79-1.6l.64.66,1.77,1.92-2.43,2.8s2.28,1.77,2.43,1.77,1.62,2.6,1.62,2.6c0,0,2.06-.5,2.51,0,.44.5,3.69,2.56,3.69,2.56l2.48.59c.37.78-.66,1.53-1.29,2.21"/>
  </g>
</svg>