<?xml version="1.0" encoding="UTF-8"?>
<svg id="Capa_2" data-name="Capa 2" xmlns="http://www.w3.org/2000/svg" viewBox="0 0 37.68 90.1">
  <defs>
    <style>
      .cls-1 {
        fill: #e86126;
        stroke: #f6f8f9;
        stroke-miterlimit: 10;
      }
    </style>
  </defs>
  <g id="Capa_2-2" data-name="Capa 2">
    <path class="cls-1" d="M33.04,13.4s-2.03.41-2.61.26c-.59-.15-2.08-.36-2.62-.26-.53.11-1.49-.32-.85-1.07.64-.74,1.81-2.67,2.13-3.2.32-.54.64-1.6.22-1.92-.43-.32-2.56-1.71-2.56-1.71,0,0-.32.85-1.17,0-.85-.85,1.28-2.56,0-2.67-1.28-.11-1.71-.11-2.24-.64-.53-.53-.22-1.07-1.28-1.28-1.07-.21-.32,0-1.92,0s-2.56-.51-3.31-.09c-.75.41-1.28.11-1.71-.17l-1.72,1.96s1.03.74,1.03,1.48.44,2.66.74,3.39c.3.74-.15,1.77-.88,3.1-.73,1.33-1.62,1.77-2.5,2.36-.89.59-2.51,1.03-4.13.98-1.62-.05-1.48.05-2.06,0-.59-.05-1.18,2.27-2.07,4.18-.89,1.92-1.48,2.51-1.62,3.1-.15.59.74,3.1,1.18,4.13.44,1.03,1.62,2.36,2.21,2.95.59.59,2.36,3.98,3.1,4.86.74.89,1.92,3.54,1.92,3.54,0,0-1.33.59-3.09.3-1.77-.3-2.8-.74-4.13-.59-1.33.15-2.21,1.77-2.51,2.95-.29,1.18.44,1.62,2.36,2.51,1.92.88,1.04.88.89,2.21-.15,1.33.89,1.92,2.66,2.65,1.77.74.59,1.62.59,2.07s-.59,1.92-.74,2.8c-.15.89,2.36,3.54,2.36,3.54,0,0,1.19,3.39,1.37,3.75.44.88,0,1.47-.29,2.36-.3.89-.89,3.39-.89,3.98s1.48,1.18,1.48,1.18c0,0,.89,8.4.74,9-.13.51-1.23,2.43-1.63,3.24h1.78l1.3,4.2s-.13,1.83,0,2.01c.13.18-1.3,2.55-1.3,2.55,0,0,.62,2.37,1.3,2.19.68-.18,3.78.01,3.78.01,0,0,1.09-.17,2.37,0,1.28.17,3.47-.92,3.47-.92l1.64-2.56-.55-1.83s1.64-.54.37-1.27c-1.28-.73-1.64-2.01-2.38-2.55-.73-.55-1.28-1.83-1.28-2.92s-.18-1.83.73-2.92c.91-1.09,3.29.37,1.83-2.73-1.46-3.11-2.01-3.83-2.56-2.92-.55.91-2.55,4.66-2.37,1.96.18-2.69-.73-3.95-.73-4.24s1.82-2.11,1.82-3.39.37-2.55.73-3.83c.37-1.28,1.1-3.36.91-4.6-.18-1.24.36-5.44.36-5.44l1.09-.91s.3-.27.82-.74c-.49-.06-.84-.12-.84-.12l1.13-2.48,1.8-2.82s3.38-3.49,3.72-4.28c.34-.79,1.75-2.7,1.75-2.7,0,0,1.73-1.58,2.08-2.03.34-.45,1.87-4.17,1.33-4.62-.54-.45-1.44-2.37-1.1-4.05.34-1.69.85-4.05,1.1-4.84.25-.79.25-2.25.82-2.93.56-.67,1.91-1.8,2.36-2.59.04-.08.12-.23.21-.43l-3.91-.47Z"/>
  </g>
</svg>